<svg width="103" height="32" viewBox="0 0 103 32" fill="none" xmlns="http://www.w3.org/2000/svg">
  <path fill-rule="evenodd" clip-rule="evenodd" d="M12.3499 16H19.9919H19.995C24.4241 16 28 12.422 28 8C28 3.57798 24.4241 0 19.995 0H19.6501H12.0081H12.005C7.5941 0 4 3.57798 4 8C4 12.422 7.57595 16 12.005 16H12.3499ZM11.9909 16C13.4075 16 14.7333 16.367 15.8774 17.0092C18.3292 18.367 20 20.9908 20 24C20 28.422 16.4222 32 11.9909 32H11.6459H4V24C4 23.8165 4 23.633 4.01816 23.4495C4.30874 19.2844 7.75936 16 11.9909 16Z" fill="#9933FF"/>
  <path d="M12 16C13.4312 16 14.7852 16.375 16 17.082L4.0367 7.96332C4.0367 7.96332 4 28.5 4 24C4 19.5 7.72477 16 12 16Z" fill="#110033"/>
  <path d="M54.5324 7.08873V1H42.3727H36.5858H36V30.9998H42.3727V19.2839H52.5975V13.3727H42.3727V7.08873H54.5324Z" fill="#110033"/>
  <path d="M63.3196 10.9586H57.2664V30.9822H63.3196V10.9586Z" fill="#110033"/>
  <path d="M60.2484 7.88761C59.2721 7.88761 58.4555 7.56808 57.7632 6.91128C57.1064 6.23673 56.7869 5.40241 56.7869 4.42609C56.7869 3.44976 57.1064 2.65095 57.7632 1.99415C58.4377 1.33735 59.2721 1.01782 60.2484 1.01782C61.1892 1.01782 61.988 1.33735 62.6448 1.99415C63.3194 2.65095 63.6744 3.46751 63.6744 4.42609C63.6744 5.40241 63.3371 6.21898 62.6448 6.91128C61.988 7.56808 61.1892 7.88761 60.2484 7.88761Z" fill="#110033"/>
  <path d="M74.1121 30.9998H68.0588V10.9763H73.757L74.1476 13.0532C74.7511 12.2011 75.5854 11.5266 76.6327 11.0473C77.7156 10.568 78.8872 10.3195 80.183 10.3195C82.5262 10.3195 84.3368 11.0473 85.6149 12.5206C86.9285 13.9585 87.5853 15.9822 87.5853 18.6094V30.9821H81.5321V20.0827C81.5321 18.8224 81.2126 17.8283 80.5913 17.0827C79.97 16.3017 79.1179 15.9289 78.0706 15.9289C76.8635 15.9289 75.9049 16.3017 75.1949 17.0472C74.4848 17.775 74.1298 18.7514 74.1298 20.0117V30.9998H74.1121Z" fill="#110033"/>
  <path d="M102.888 11.0474H99.142V4.86993H93.0888V11.0474H89.3433V16.1598H93.0888V31H99.142V16.1598H102.888V11.0474Z" fill="#110033"/>
</svg>
